<mxfile host="app.diagrams.net" modified="2022-10-19T19:40:30.390Z" agent="5.0 (Windows NT 10.0; Win64; x64) AppleWebKit/537.36 (KHTML, like Gecko) Chrome/106.0.0.0 Safari/537.36" etag="ep4gSnvD03HjUJFMyvIh" version="20.4.2" type="github">
  <diagram name="Page-1" id="c4acf3e9-155e-7222-9cf6-157b1a14988f">
    <mxGraphModel dx="868" dy="454" grid="1" gridSize="10" guides="1" tooltips="1" connect="1" arrows="1" fold="1" page="1" pageScale="1" pageWidth="850" pageHeight="1100" background="none" math="0" shadow="0">
      <root>
        <mxCell id="0" />
        <mxCell id="1" parent="0" />
        <mxCell id="Gkzz44kVLpG5MlcpBbBQ-2" style="edgeStyle=orthogonalEdgeStyle;rounded=0;orthogonalLoop=1;jettySize=auto;html=1;" edge="1" parent="1" source="Gkzz44kVLpG5MlcpBbBQ-1">
          <mxGeometry relative="1" as="geometry">
            <mxPoint x="250" y="130" as="targetPoint" />
          </mxGeometry>
        </mxCell>
        <mxCell id="Gkzz44kVLpG5MlcpBbBQ-1" value="Usuario no registrado" style="shape=umlActor;verticalLabelPosition=bottom;verticalAlign=top;html=1;outlineConnect=0;" vertex="1" parent="1">
          <mxGeometry x="80" y="100" width="30" height="60" as="geometry" />
        </mxCell>
        <mxCell id="Gkzz44kVLpG5MlcpBbBQ-14" style="edgeStyle=orthogonalEdgeStyle;rounded=0;orthogonalLoop=1;jettySize=auto;html=1;" edge="1" parent="1" source="Gkzz44kVLpG5MlcpBbBQ-4" target="Gkzz44kVLpG5MlcpBbBQ-13">
          <mxGeometry relative="1" as="geometry" />
        </mxCell>
        <mxCell id="Gkzz44kVLpG5MlcpBbBQ-4" value="Usuario registrado&amp;nbsp;" style="shape=umlActor;verticalLabelPosition=bottom;verticalAlign=top;html=1;outlineConnect=0;" vertex="1" parent="1">
          <mxGeometry x="80" y="220" width="30" height="60" as="geometry" />
        </mxCell>
        <mxCell id="Gkzz44kVLpG5MlcpBbBQ-8" style="edgeStyle=orthogonalEdgeStyle;rounded=0;orthogonalLoop=1;jettySize=auto;html=1;" edge="1" parent="1" source="Gkzz44kVLpG5MlcpBbBQ-5" target="Gkzz44kVLpG5MlcpBbBQ-7">
          <mxGeometry relative="1" as="geometry" />
        </mxCell>
        <mxCell id="Gkzz44kVLpG5MlcpBbBQ-11" style="edgeStyle=orthogonalEdgeStyle;rounded=0;orthogonalLoop=1;jettySize=auto;html=1;" edge="1" parent="1" source="Gkzz44kVLpG5MlcpBbBQ-5" target="Gkzz44kVLpG5MlcpBbBQ-6">
          <mxGeometry relative="1" as="geometry" />
        </mxCell>
        <mxCell id="Gkzz44kVLpG5MlcpBbBQ-17" style="edgeStyle=orthogonalEdgeStyle;rounded=0;orthogonalLoop=1;jettySize=auto;html=1;entryX=0;entryY=0.5;entryDx=0;entryDy=0;" edge="1" parent="1" source="Gkzz44kVLpG5MlcpBbBQ-5" target="Gkzz44kVLpG5MlcpBbBQ-15">
          <mxGeometry relative="1" as="geometry">
            <Array as="points">
              <mxPoint x="210" y="360" />
              <mxPoint x="210" y="360" />
            </Array>
          </mxGeometry>
        </mxCell>
        <mxCell id="Gkzz44kVLpG5MlcpBbBQ-18" style="edgeStyle=orthogonalEdgeStyle;rounded=0;orthogonalLoop=1;jettySize=auto;html=1;entryX=0;entryY=0.5;entryDx=0;entryDy=0;" edge="1" parent="1" source="Gkzz44kVLpG5MlcpBbBQ-5" target="Gkzz44kVLpG5MlcpBbBQ-16">
          <mxGeometry relative="1" as="geometry" />
        </mxCell>
        <mxCell id="Gkzz44kVLpG5MlcpBbBQ-24" style="edgeStyle=orthogonalEdgeStyle;rounded=0;orthogonalLoop=1;jettySize=auto;html=1;entryX=0;entryY=0.5;entryDx=0;entryDy=0;" edge="1" parent="1" source="Gkzz44kVLpG5MlcpBbBQ-5" target="Gkzz44kVLpG5MlcpBbBQ-19">
          <mxGeometry relative="1" as="geometry" />
        </mxCell>
        <mxCell id="Gkzz44kVLpG5MlcpBbBQ-25" style="edgeStyle=orthogonalEdgeStyle;rounded=0;orthogonalLoop=1;jettySize=auto;html=1;entryX=0;entryY=0.5;entryDx=0;entryDy=0;" edge="1" parent="1" source="Gkzz44kVLpG5MlcpBbBQ-5" target="Gkzz44kVLpG5MlcpBbBQ-20">
          <mxGeometry relative="1" as="geometry" />
        </mxCell>
        <mxCell id="Gkzz44kVLpG5MlcpBbBQ-5" value="Usuario autenticado" style="shape=umlActor;verticalLabelPosition=bottom;verticalAlign=top;html=1;outlineConnect=0;" vertex="1" parent="1">
          <mxGeometry x="50" y="330" width="30" height="60" as="geometry" />
        </mxCell>
        <mxCell id="Gkzz44kVLpG5MlcpBbBQ-26" style="edgeStyle=orthogonalEdgeStyle;rounded=0;orthogonalLoop=1;jettySize=auto;html=1;entryX=0;entryY=0.5;entryDx=0;entryDy=0;" edge="1" parent="1" source="Gkzz44kVLpG5MlcpBbBQ-6" target="Gkzz44kVLpG5MlcpBbBQ-21">
          <mxGeometry relative="1" as="geometry">
            <Array as="points">
              <mxPoint x="145" y="450" />
              <mxPoint x="230" y="450" />
              <mxPoint x="230" y="630" />
              <mxPoint x="450" y="630" />
            </Array>
          </mxGeometry>
        </mxCell>
        <mxCell id="Gkzz44kVLpG5MlcpBbBQ-6" value="Viajante" style="shape=umlActor;verticalLabelPosition=bottom;verticalAlign=top;html=1;outlineConnect=0;" vertex="1" parent="1">
          <mxGeometry x="130" y="520" width="30" height="60" as="geometry" />
        </mxCell>
        <mxCell id="Gkzz44kVLpG5MlcpBbBQ-10" style="edgeStyle=orthogonalEdgeStyle;rounded=0;orthogonalLoop=1;jettySize=auto;html=1;" edge="1" parent="1" source="Gkzz44kVLpG5MlcpBbBQ-7" target="Gkzz44kVLpG5MlcpBbBQ-6">
          <mxGeometry relative="1" as="geometry" />
        </mxCell>
        <mxCell id="Gkzz44kVLpG5MlcpBbBQ-28" style="edgeStyle=orthogonalEdgeStyle;rounded=0;orthogonalLoop=1;jettySize=auto;html=1;entryX=0;entryY=0.5;entryDx=0;entryDy=0;" edge="1" parent="1" source="Gkzz44kVLpG5MlcpBbBQ-7" target="Gkzz44kVLpG5MlcpBbBQ-22">
          <mxGeometry relative="1" as="geometry">
            <Array as="points">
              <mxPoint x="120" y="690" />
              <mxPoint x="120" y="730" />
              <mxPoint x="450" y="730" />
            </Array>
          </mxGeometry>
        </mxCell>
        <mxCell id="Gkzz44kVLpG5MlcpBbBQ-29" style="edgeStyle=orthogonalEdgeStyle;rounded=0;orthogonalLoop=1;jettySize=auto;html=1;entryX=0;entryY=0.5;entryDx=0;entryDy=0;" edge="1" parent="1" source="Gkzz44kVLpG5MlcpBbBQ-7" target="Gkzz44kVLpG5MlcpBbBQ-23">
          <mxGeometry relative="1" as="geometry">
            <Array as="points">
              <mxPoint x="120" y="690" />
              <mxPoint x="120" y="810" />
              <mxPoint x="450" y="810" />
            </Array>
          </mxGeometry>
        </mxCell>
        <mxCell id="Gkzz44kVLpG5MlcpBbBQ-7" value="Chofer" style="shape=umlActor;verticalLabelPosition=bottom;verticalAlign=top;html=1;outlineConnect=0;" vertex="1" parent="1">
          <mxGeometry x="60" y="660" width="30" height="60" as="geometry" />
        </mxCell>
        <mxCell id="Gkzz44kVLpG5MlcpBbBQ-12" value="Realizar registro" style="ellipse;whiteSpace=wrap;html=1;" vertex="1" parent="1">
          <mxGeometry x="250" y="95" width="140" height="70" as="geometry" />
        </mxCell>
        <mxCell id="Gkzz44kVLpG5MlcpBbBQ-13" value="Realizar autenticación" style="ellipse;whiteSpace=wrap;html=1;" vertex="1" parent="1">
          <mxGeometry x="250" y="210" width="140" height="70" as="geometry" />
        </mxCell>
        <mxCell id="Gkzz44kVLpG5MlcpBbBQ-30" value="" style="whiteSpace=wrap;html=1;fontColor=none;noLabel=1;labelBackgroundColor=none;fillColor=none;" vertex="1" parent="1">
          <mxGeometry x="200" y="30" width="570" height="850" as="geometry" />
        </mxCell>
        <mxCell id="Gkzz44kVLpG5MlcpBbBQ-15" value="Publicar viaje" style="ellipse;whiteSpace=wrap;html=1;" vertex="1" parent="1">
          <mxGeometry x="450" y="280" width="140" height="70" as="geometry" />
        </mxCell>
        <mxCell id="Gkzz44kVLpG5MlcpBbBQ-16" value="Postularse como compañia" style="ellipse;whiteSpace=wrap;html=1;" vertex="1" parent="1">
          <mxGeometry x="450" y="360" width="140" height="70" as="geometry" />
        </mxCell>
        <mxCell id="Gkzz44kVLpG5MlcpBbBQ-19" value="Cerrar sesión" style="ellipse;whiteSpace=wrap;html=1;" vertex="1" parent="1">
          <mxGeometry x="450" y="440" width="140" height="70" as="geometry" />
        </mxCell>
        <mxCell id="Gkzz44kVLpG5MlcpBbBQ-20" value="Conocer opinión" style="ellipse;whiteSpace=wrap;html=1;" vertex="1" parent="1">
          <mxGeometry x="450" y="515" width="140" height="70" as="geometry" />
        </mxCell>
        <mxCell id="Gkzz44kVLpG5MlcpBbBQ-21" value="Calificar viajante" style="ellipse;whiteSpace=wrap;html=1;" vertex="1" parent="1">
          <mxGeometry x="450" y="590" width="140" height="70" as="geometry" />
        </mxCell>
        <mxCell id="Gkzz44kVLpG5MlcpBbBQ-22" value="Elegir compañía" style="ellipse;whiteSpace=wrap;html=1;" vertex="1" parent="1">
          <mxGeometry x="450" y="680" width="140" height="70" as="geometry" />
        </mxCell>
        <mxCell id="Gkzz44kVLpG5MlcpBbBQ-23" value="Terminar viaje" style="ellipse;whiteSpace=wrap;html=1;" vertex="1" parent="1">
          <mxGeometry x="450" y="770" width="140" height="70" as="geometry" />
        </mxCell>
        <mxCell id="Gkzz44kVLpG5MlcpBbBQ-38" value="extiende" style="html=1;verticalAlign=bottom;endArrow=block;rounded=0;fontColor=none;entryX=1;entryY=0.5;entryDx=0;entryDy=0;" edge="1" parent="1" target="Gkzz44kVLpG5MlcpBbBQ-15">
          <mxGeometry width="80" relative="1" as="geometry">
            <mxPoint x="590" y="720" as="sourcePoint" />
            <mxPoint x="670" y="720" as="targetPoint" />
            <Array as="points">
              <mxPoint x="690" y="520" />
            </Array>
          </mxGeometry>
        </mxCell>
        <mxCell id="Gkzz44kVLpG5MlcpBbBQ-39" value="extiende" style="html=1;verticalAlign=bottom;endArrow=block;rounded=0;fontColor=none;entryX=0.993;entryY=0.614;entryDx=0;entryDy=0;entryPerimeter=0;" edge="1" parent="1" target="Gkzz44kVLpG5MlcpBbBQ-15">
          <mxGeometry width="80" relative="1" as="geometry">
            <mxPoint x="590" y="800" as="sourcePoint" />
            <mxPoint x="670" y="800" as="targetPoint" />
            <Array as="points">
              <mxPoint x="760" y="550" />
            </Array>
          </mxGeometry>
        </mxCell>
        <mxCell id="Gkzz44kVLpG5MlcpBbBQ-40" value="depende de" style="html=1;verticalAlign=bottom;endArrow=block;rounded=0;fontColor=none;entryX=1;entryY=0.5;entryDx=0;entryDy=0;" edge="1" parent="1" target="Gkzz44kVLpG5MlcpBbBQ-16">
          <mxGeometry width="80" relative="1" as="geometry">
            <mxPoint x="590" y="630" as="sourcePoint" />
            <mxPoint x="670" y="630" as="targetPoint" />
            <Array as="points">
              <mxPoint x="630" y="520" />
            </Array>
          </mxGeometry>
        </mxCell>
        <mxCell id="Gkzz44kVLpG5MlcpBbBQ-41" value="depende de" style="html=1;verticalAlign=bottom;endArrow=block;rounded=0;fontColor=none;entryX=0.993;entryY=0.414;entryDx=0;entryDy=0;entryPerimeter=0;" edge="1" parent="1" target="Gkzz44kVLpG5MlcpBbBQ-23">
          <mxGeometry width="80" relative="1" as="geometry">
            <mxPoint x="590" y="630" as="sourcePoint" />
            <mxPoint x="670" y="630" as="targetPoint" />
            <Array as="points">
              <mxPoint x="650" y="670" />
            </Array>
          </mxGeometry>
        </mxCell>
      </root>
    </mxGraphModel>
  </diagram>
</mxfile>
